<mxfile host="app.diagrams.net" modified="2021-05-17T05:20:01.827Z" agent="5.0 (Windows NT 10.0; Win64; x64) AppleWebKit/537.36 (KHTML, like Gecko) Chrome/90.0.4430.212 Safari/537.36" etag="k4MqeWINbbBZXGHsbehK" version="14.4.4" type="github">
  <diagram id="26vAVl-bKkT6xm7p6sql" name="Page-1">
    <mxGraphModel dx="1038" dy="548" grid="1" gridSize="10" guides="1" tooltips="1" connect="1" arrows="1" fold="1" page="1" pageScale="1" pageWidth="827" pageHeight="1169" math="0" shadow="0">
      <root>
        <mxCell id="0" />
        <mxCell id="1" parent="0" />
        <mxCell id="fQpC6n1c5xATC8OqoRWS-1" value="" style="shape=flexArrow;endArrow=classic;html=1;" parent="1" edge="1">
          <mxGeometry width="50" height="50" relative="1" as="geometry">
            <mxPoint x="230" y="219.5" as="sourcePoint" />
            <mxPoint x="480" y="220" as="targetPoint" />
          </mxGeometry>
        </mxCell>
        <mxCell id="fQpC6n1c5xATC8OqoRWS-2" value="Client" style="shape=umlActor;verticalLabelPosition=bottom;verticalAlign=top;html=1;outlineConnect=0;" parent="1" vertex="1">
          <mxGeometry x="510" y="180" width="30" height="60" as="geometry" />
        </mxCell>
        <mxCell id="fQpC6n1c5xATC8OqoRWS-3" value="Area 1" style="shape=umlActor;verticalLabelPosition=bottom;verticalAlign=top;html=1;outlineConnect=0;" parent="1" vertex="1">
          <mxGeometry x="170" y="190" width="30" height="60" as="geometry" />
        </mxCell>
        <mxCell id="fQpC6n1c5xATC8OqoRWS-4" value="Area 1 should be the unique one accountable to provide the service A" style="text;html=1;strokeColor=none;fillColor=none;align=center;verticalAlign=middle;whiteSpace=wrap;rounded=0;" parent="1" vertex="1">
          <mxGeometry x="50" y="130" width="260" height="20" as="geometry" />
        </mxCell>
        <mxCell id="fQpC6n1c5xATC8OqoRWS-5" value="Service A" style="text;html=1;strokeColor=none;fillColor=none;align=center;verticalAlign=middle;whiteSpace=wrap;rounded=0;" parent="1" vertex="1">
          <mxGeometry x="290" y="240" width="100" height="20" as="geometry" />
        </mxCell>
        <mxCell id="fQpC6n1c5xATC8OqoRWS-6" value="Process 1" style="ellipse;whiteSpace=wrap;html=1;fillColor=#fff2cc;strokeColor=#d6b656;" parent="1" vertex="1">
          <mxGeometry x="230" y="300" width="60" height="40" as="geometry" />
        </mxCell>
        <mxCell id="fQpC6n1c5xATC8OqoRWS-9" value="Process 2" style="ellipse;whiteSpace=wrap;html=1;fillColor=#fff2cc;strokeColor=#d6b656;" parent="1" vertex="1">
          <mxGeometry x="310" y="300" width="60" height="40" as="geometry" />
        </mxCell>
        <mxCell id="fQpC6n1c5xATC8OqoRWS-10" value="Process 3" style="ellipse;whiteSpace=wrap;html=1;fillColor=#fff2cc;strokeColor=#d6b656;" parent="1" vertex="1">
          <mxGeometry x="384" y="300" width="60" height="40" as="geometry" />
        </mxCell>
        <mxCell id="fQpC6n1c5xATC8OqoRWS-11" value="Worker A" style="shape=umlActor;verticalLabelPosition=bottom;verticalAlign=top;html=1;outlineConnect=0;" parent="1" vertex="1">
          <mxGeometry x="245" y="340" width="15" height="30" as="geometry" />
        </mxCell>
        <mxCell id="fQpC6n1c5xATC8OqoRWS-12" value="Worker C" style="shape=umlActor;verticalLabelPosition=bottom;verticalAlign=top;html=1;outlineConnect=0;" parent="1" vertex="1">
          <mxGeometry x="406.5" y="350" width="15" height="30" as="geometry" />
        </mxCell>
        <mxCell id="fQpC6n1c5xATC8OqoRWS-13" value="&lt;div&gt;&lt;span&gt;&lt;u&gt;Area 1 only ask for a service internal OR EXTERNAL:&lt;/u&gt;&lt;/span&gt;&lt;/div&gt;&lt;br&gt;1. CAPABLITIES SERVICES: when it needs resources, information, machines, etc that enables capabilies to provide the services.&lt;br&gt;&lt;br&gt;&lt;div&gt;&lt;span&gt;2.SERVICE DESK: when need help to overcome an incident&lt;/span&gt;&lt;/div&gt;&lt;div&gt;&lt;span&gt;&lt;br&gt;&lt;/span&gt;&lt;/div&gt;&lt;div&gt;&lt;span&gt;&lt;br&gt;&lt;/span&gt;&lt;/div&gt;&lt;div&gt;&lt;span&gt;TO sum up, the area who is owner of a service should have the total control of the resourses for providing the services&lt;/span&gt;&lt;/div&gt;" style="text;html=1;strokeColor=none;fillColor=none;align=left;verticalAlign=middle;whiteSpace=wrap;rounded=0;" parent="1" vertex="1">
          <mxGeometry x="70" y="420" width="370" height="150" as="geometry" />
        </mxCell>
        <mxCell id="fQpC6n1c5xATC8OqoRWS-14" value="Area1, should be the only accountable for the cost of the service so all service that ask for another area (capability service or service desk) should be include in the cost of its the service" style="text;html=1;strokeColor=none;fillColor=none;align=center;verticalAlign=middle;whiteSpace=wrap;rounded=0;" parent="1" vertex="1">
          <mxGeometry x="540" y="430" width="270" height="100" as="geometry" />
        </mxCell>
        <mxCell id="fQpC6n1c5xATC8OqoRWS-17" value="Area 1" style="shape=umlActor;verticalLabelPosition=bottom;verticalAlign=top;html=1;outlineConnect=0;" parent="1" vertex="1">
          <mxGeometry x="310" y="600" width="30" height="60" as="geometry" />
        </mxCell>
        <mxCell id="fQpC6n1c5xATC8OqoRWS-18" value="" style="endArrow=classic;html=1;" parent="1" source="fQpC6n1c5xATC8OqoRWS-17" edge="1">
          <mxGeometry width="50" height="50" relative="1" as="geometry">
            <mxPoint x="140" y="730" as="sourcePoint" />
            <mxPoint x="110" y="630" as="targetPoint" />
          </mxGeometry>
        </mxCell>
        <mxCell id="fQpC6n1c5xATC8OqoRWS-21" value="New application" style="edgeLabel;html=1;align=center;verticalAlign=middle;resizable=0;points=[];" parent="fQpC6n1c5xATC8OqoRWS-18" vertex="1" connectable="0">
          <mxGeometry x="0.4355" relative="1" as="geometry">
            <mxPoint x="43.1" as="offset" />
          </mxGeometry>
        </mxCell>
        <mxCell id="fQpC6n1c5xATC8OqoRWS-19" value="OTI" style="shape=umlActor;verticalLabelPosition=bottom;verticalAlign=top;html=1;outlineConnect=0;" parent="1" vertex="1">
          <mxGeometry x="80" y="600" width="30" height="60" as="geometry" />
        </mxCell>
        <mxCell id="fQpC6n1c5xATC8OqoRWS-23" value="" style="endArrow=classic;html=1;" parent="1" edge="1">
          <mxGeometry width="50" height="50" relative="1" as="geometry">
            <mxPoint x="280" y="650" as="sourcePoint" />
            <mxPoint x="115" y="650" as="targetPoint" />
          </mxGeometry>
        </mxCell>
        <mxCell id="fQpC6n1c5xATC8OqoRWS-24" value="Aplication available" style="edgeLabel;html=1;align=center;verticalAlign=middle;resizable=0;points=[];" parent="fQpC6n1c5xATC8OqoRWS-23" vertex="1" connectable="0">
          <mxGeometry x="-0.8596" relative="1" as="geometry">
            <mxPoint x="-48.28" as="offset" />
          </mxGeometry>
        </mxCell>
        <mxCell id="fQpC6n1c5xATC8OqoRWS-26" value="COst of service 1= Sum (COst of process of service + cost of Capability services+ Cost of service desk+ Cost of Managment service)" style="text;html=1;strokeColor=none;fillColor=none;align=center;verticalAlign=middle;whiteSpace=wrap;rounded=0;" parent="1" vertex="1">
          <mxGeometry x="110" y="720" width="400" height="20" as="geometry" />
        </mxCell>
      </root>
    </mxGraphModel>
  </diagram>
</mxfile>
